<mxfile host="app.diagrams.net" modified="2022-06-11T15:22:23.999Z" agent="5.0 (Windows NT 10.0; Win64; x64) AppleWebKit/537.36 (KHTML, like Gecko) Chrome/102.0.0.0 Safari/537.36" etag="b7apf_HyFI9F1vr7l681" version="19.0.3" type="github" pages="5">
  <diagram name="Home" id="03018318-947c-dd8e-b7a3-06fadd420f32">
    <mxGraphModel dx="3160" dy="1853" grid="1" gridSize="10" guides="1" tooltips="1" connect="1" arrows="1" fold="1" page="1" pageScale="1" pageWidth="1100" pageHeight="850" background="#114B5F" math="0" shadow="1">
      <root>
        <mxCell id="0" />
        <mxCell id="1" parent="0" />
        <mxCell id="677b7b8949515195-1" value="" style="whiteSpace=wrap;html=1;rounded=0;shadow=0;labelBackgroundColor=none;strokeColor=#028090;strokeWidth=1;fillColor=none;fontFamily=Verdana;fontSize=12;fontColor=#E4FDE1;align=center;comic=1;" parent="1" vertex="1">
          <mxGeometry x="20" y="20" width="1060" height="810" as="geometry" />
        </mxCell>
        <mxCell id="677b7b8949515195-2" value="LOGO" style="whiteSpace=wrap;html=1;rounded=0;shadow=0;labelBackgroundColor=none;strokeWidth=1;fontFamily=Verdana;fontSize=28;align=center;comic=1;fillColor=#F45B69;strokeColor=#028090;fontColor=#E4FDE1;" parent="1" vertex="1">
          <mxGeometry x="40" y="60" width="190" height="50" as="geometry" />
        </mxCell>
        <mxCell id="677b7b8949515195-3" value="Search" style="strokeWidth=1;shadow=0;dashed=0;align=center;html=1;shape=mxgraph.mockup.forms.searchBox;strokeColor=#028090;mainText=;strokeColor2=#008cff;fontColor=#E4FDE1;fontSize=17;align=left;spacingLeft=3;rounded=0;labelBackgroundColor=none;comic=1;fillColor=#F45B69;" parent="1" vertex="1">
          <mxGeometry x="840" y="95" width="220" height="30" as="geometry" />
        </mxCell>
        <mxCell id="677b7b8949515195-4" value="Topic 1" style="text;html=1;points=[];align=left;verticalAlign=top;spacingTop=-4;fontSize=14;fontFamily=Verdana;fontColor=#E4FDE1;" parent="1" vertex="1">
          <mxGeometry x="780" y="40" width="60" height="20" as="geometry" />
        </mxCell>
        <mxCell id="677b7b8949515195-5" value="Topic 2" style="text;html=1;points=[];align=left;verticalAlign=top;spacingTop=-4;fontSize=14;fontFamily=Verdana;fontColor=#E4FDE1;" parent="1" vertex="1">
          <mxGeometry x="860" y="40" width="60" height="20" as="geometry" />
        </mxCell>
        <mxCell id="677b7b8949515195-6" value="Topic 3" style="text;html=1;points=[];align=left;verticalAlign=top;spacingTop=-4;fontSize=14;fontFamily=Verdana;fontColor=#E4FDE1;" parent="1" vertex="1">
          <mxGeometry x="930" y="40" width="60" height="20" as="geometry" />
        </mxCell>
        <mxCell id="677b7b8949515195-7" value="Topic 4" style="text;html=1;points=[];align=left;verticalAlign=top;spacingTop=-4;fontSize=14;fontFamily=Verdana;fontColor=#E4FDE1;" parent="1" vertex="1">
          <mxGeometry x="1000" y="40" width="60" height="20" as="geometry" />
        </mxCell>
        <mxCell id="677b7b8949515195-8" value="" style="whiteSpace=wrap;html=1;rounded=0;shadow=0;labelBackgroundColor=none;strokeWidth=1;fillColor=none;fontFamily=Verdana;fontSize=12;align=center;comic=1;strokeColor=#028090;fontColor=#E4FDE1;" parent="1" vertex="1">
          <mxGeometry x="30" y="230" width="200" height="590" as="geometry" />
        </mxCell>
        <mxCell id="677b7b8949515195-9" value="" style="line;strokeWidth=1;html=1;rounded=0;shadow=0;labelBackgroundColor=none;fillColor=none;fontFamily=Verdana;fontSize=14;fontColor=#E4FDE1;align=center;comic=1;strokeColor=#028090;" parent="1" vertex="1">
          <mxGeometry x="20" y="140" width="1060" height="10" as="geometry" />
        </mxCell>
        <mxCell id="677b7b8949515195-10" value="" style="whiteSpace=wrap;html=1;rounded=0;shadow=0;labelBackgroundColor=none;strokeWidth=1;fillColor=none;fontFamily=Verdana;fontSize=12;align=center;comic=1;strokeColor=#028090;fontColor=#E4FDE1;" parent="1" vertex="1">
          <mxGeometry x="30" y="160" width="1040" height="50" as="geometry" />
        </mxCell>
        <mxCell id="677b7b8949515195-11" value="Section 1" style="text;html=1;points=[];align=left;verticalAlign=top;spacingTop=-4;fontSize=14;fontFamily=Verdana;fontColor=#E4FDE1;" parent="1" vertex="1">
          <mxGeometry x="330" y="175" width="60" height="20" as="geometry" />
        </mxCell>
        <mxCell id="677b7b8949515195-12" value="Section 2" style="text;html=1;points=[];align=left;verticalAlign=top;spacingTop=-4;fontSize=14;fontFamily=Verdana;fontColor=#E4FDE1;" parent="1" vertex="1">
          <mxGeometry x="477" y="175" width="60" height="20" as="geometry" />
        </mxCell>
        <mxCell id="677b7b8949515195-13" value="Section 3" style="text;html=1;points=[];align=left;verticalAlign=top;spacingTop=-4;fontSize=14;fontFamily=Verdana;fontColor=#E4FDE1;" parent="1" vertex="1">
          <mxGeometry x="623" y="175" width="60" height="20" as="geometry" />
        </mxCell>
        <mxCell id="677b7b8949515195-14" value="Section 4" style="text;html=1;points=[];align=left;verticalAlign=top;spacingTop=-4;fontSize=14;fontFamily=Verdana;fontColor=#E4FDE1;" parent="1" vertex="1">
          <mxGeometry x="770" y="175" width="60" height="20" as="geometry" />
        </mxCell>
        <mxCell id="677b7b8949515195-15" value="&lt;div style=&quot;text-align: justify&quot;&gt;&lt;span&gt;Lorem ipsum dolor sit amet, consectetur adipisicing elit, sed do eiusmod tempor incididunt ut labore et dolore magna aliqua. Ut enim ad minim veniam, quis nostrud exercitation ullamco laboris nisi ut aliquip ex ea commodo consequat. Duis aute irure dolor in reprehenderit in voluptate velit esse cillum dolore eu fugiat nulla pariatur. Excepteur sint occaecat cupidatat non proident, sunt in culpa qui officia deserunt mollit anim id est laborum.&lt;/span&gt;&lt;/div&gt;&lt;div style=&quot;text-align: justify&quot;&gt;&lt;span&gt;Sed ut perspiciatis unde omnis iste natus error sit voluptatem accusantium doloremque laudantium, totam rem aperiam, eaque ipsa quae ab illo inventore veritatis et quasi architecto beatae vitae dicta sunt explicabo. Nemo enim ipsam voluptatem quia voluptas sit aspernatur aut odit aut fugit, sed quia consequuntur magni dolores eos qui ratione voluptatem sequi nesciunt.&amp;nbsp;&lt;/span&gt;&lt;/div&gt;" style="whiteSpace=wrap;html=1;rounded=0;shadow=0;labelBackgroundColor=none;strokeWidth=1;fillColor=none;fontFamily=Verdana;fontSize=12;align=center;verticalAlign=top;spacing=10;comic=1;strokeColor=#028090;fontColor=#E4FDE1;" parent="1" vertex="1">
          <mxGeometry x="250" y="640" width="580" height="180" as="geometry" />
        </mxCell>
        <mxCell id="677b7b8949515195-16" value="" style="verticalLabelPosition=bottom;shadow=0;dashed=0;align=center;html=1;verticalAlign=top;strokeWidth=1;shape=mxgraph.mockup.graphics.simpleIcon;strokeColor=#028090;rounded=0;labelBackgroundColor=none;fontFamily=Verdana;fontSize=14;fontColor=#E4FDE1;comic=1;fillColor=#F45B69;" parent="1" vertex="1">
          <mxGeometry x="250" y="230" width="580" height="400" as="geometry" />
        </mxCell>
        <mxCell id="677b7b8949515195-25" value="" style="whiteSpace=wrap;html=1;rounded=0;shadow=0;labelBackgroundColor=none;strokeWidth=1;fillColor=none;fontFamily=Verdana;fontSize=12;align=center;comic=1;strokeColor=#028090;fontColor=#E4FDE1;" parent="1" vertex="1">
          <mxGeometry x="840" y="230" width="230" height="400" as="geometry" />
        </mxCell>
        <mxCell id="677b7b8949515195-26" value="" style="whiteSpace=wrap;html=1;rounded=0;shadow=0;labelBackgroundColor=none;strokeWidth=1;fillColor=none;fontFamily=Verdana;fontSize=12;align=center;comic=1;strokeColor=#028090;fontColor=#E4FDE1;" parent="1" vertex="1">
          <mxGeometry x="840" y="640" width="230" height="180" as="geometry" />
        </mxCell>
        <mxCell id="677b7b8949515195-27" value="Section 1" style="text;html=1;points=[];align=left;verticalAlign=top;spacingTop=-4;fontSize=14;fontFamily=Verdana;fontColor=#E4FDE1;" parent="1" vertex="1">
          <mxGeometry x="40" y="250" width="170" height="20" as="geometry" />
        </mxCell>
        <mxCell id="677b7b8949515195-28" value="Section 2" style="text;html=1;points=[];align=left;verticalAlign=top;spacingTop=-4;fontSize=14;fontFamily=Verdana;fontColor=#E4FDE1;" parent="1" vertex="1">
          <mxGeometry x="40" y="286" width="170" height="20" as="geometry" />
        </mxCell>
        <mxCell id="677b7b8949515195-29" value="Section 3" style="text;html=1;points=[];align=left;verticalAlign=top;spacingTop=-4;fontSize=14;fontFamily=Verdana;fontColor=#E4FDE1;" parent="1" vertex="1">
          <mxGeometry x="40" y="321" width="170" height="20" as="geometry" />
        </mxCell>
        <mxCell id="677b7b8949515195-30" value="Section 4" style="text;html=1;points=[];align=left;verticalAlign=top;spacingTop=-4;fontSize=14;fontFamily=Verdana;fontColor=#E4FDE1;" parent="1" vertex="1">
          <mxGeometry x="40" y="357" width="170" height="20" as="geometry" />
        </mxCell>
        <mxCell id="677b7b8949515195-31" value="Section 7" style="text;html=1;points=[];align=left;verticalAlign=top;spacingTop=-4;fontSize=14;fontFamily=Verdana;fontColor=#E4FDE1;" parent="1" vertex="1">
          <mxGeometry x="40" y="464" width="170" height="20" as="geometry" />
        </mxCell>
        <mxCell id="677b7b8949515195-32" value="Section 8" style="text;html=1;points=[];align=left;verticalAlign=top;spacingTop=-4;fontSize=14;fontFamily=Verdana;fontColor=#E4FDE1;" parent="1" vertex="1">
          <mxGeometry x="40" y="500" width="170" height="20" as="geometry" />
        </mxCell>
        <mxCell id="677b7b8949515195-33" value="Section 9" style="text;html=1;points=[];align=left;verticalAlign=top;spacingTop=-4;fontSize=14;fontFamily=Verdana;fontColor=#E4FDE1;" parent="1" vertex="1">
          <mxGeometry x="40" y="536" width="170" height="20" as="geometry" />
        </mxCell>
        <mxCell id="677b7b8949515195-34" value="Section 10" style="text;html=1;points=[];align=left;verticalAlign=top;spacingTop=-4;fontSize=14;fontFamily=Verdana;fontColor=#E4FDE1;" parent="1" vertex="1">
          <mxGeometry x="40" y="571" width="170" height="20" as="geometry" />
        </mxCell>
        <mxCell id="677b7b8949515195-35" value="Section 11" style="text;html=1;points=[];align=left;verticalAlign=top;spacingTop=-4;fontSize=14;fontFamily=Verdana;fontColor=#E4FDE1;" parent="1" vertex="1">
          <mxGeometry x="40" y="607" width="170" height="20" as="geometry" />
        </mxCell>
        <mxCell id="677b7b8949515195-36" value="Section 12" style="text;html=1;points=[];align=left;verticalAlign=top;spacingTop=-4;fontSize=14;fontFamily=Verdana;fontColor=#E4FDE1;" parent="1" vertex="1">
          <mxGeometry x="40" y="643" width="170" height="20" as="geometry" />
        </mxCell>
        <mxCell id="677b7b8949515195-37" value="Section 13" style="text;html=1;points=[];align=left;verticalAlign=top;spacingTop=-4;fontSize=14;fontFamily=Verdana;fontColor=#E4FDE1;" parent="1" vertex="1">
          <mxGeometry x="40" y="679" width="170" height="20" as="geometry" />
        </mxCell>
        <mxCell id="677b7b8949515195-38" value="Section 14" style="text;html=1;points=[];align=left;verticalAlign=top;spacingTop=-4;fontSize=14;fontFamily=Verdana;fontColor=#E4FDE1;" parent="1" vertex="1">
          <mxGeometry x="40" y="714" width="170" height="20" as="geometry" />
        </mxCell>
        <mxCell id="677b7b8949515195-39" value="Section 5" style="text;html=1;points=[];align=left;verticalAlign=top;spacingTop=-4;fontSize=14;fontFamily=Verdana;fontColor=#E4FDE1;" parent="1" vertex="1">
          <mxGeometry x="40" y="393" width="170" height="20" as="geometry" />
        </mxCell>
        <mxCell id="677b7b8949515195-40" value="Section 6" style="text;html=1;points=[];align=left;verticalAlign=top;spacingTop=-4;fontSize=14;fontFamily=Verdana;fontColor=#E4FDE1;" parent="1" vertex="1">
          <mxGeometry x="40" y="429" width="170" height="20" as="geometry" />
        </mxCell>
        <mxCell id="677b7b8949515195-41" value="Section 15" style="text;html=1;points=[];align=left;verticalAlign=top;spacingTop=-4;fontSize=14;fontFamily=Verdana;fontColor=#E4FDE1;" parent="1" vertex="1">
          <mxGeometry x="40" y="750" width="170" height="20" as="geometry" />
        </mxCell>
        <mxCell id="677b7b8949515195-42" value="External Links" style="text;html=1;points=[];align=left;verticalAlign=top;spacingTop=-4;fontSize=14;fontFamily=Verdana;fontColor=#E4FDE1;" parent="1" vertex="1">
          <mxGeometry x="860" y="653" width="170" height="20" as="geometry" />
        </mxCell>
        <mxCell id="677b7b8949515195-44" value="Feature 1" style="text;html=1;points=[];align=left;verticalAlign=top;spacingTop=-4;fontSize=14;fontFamily=Verdana;fontColor=#E4FDE1;" parent="1" vertex="1">
          <mxGeometry x="860" y="250" width="170" height="20" as="geometry" />
        </mxCell>
        <mxCell id="677b7b8949515195-45" value="Feature 2" style="text;html=1;points=[];align=left;verticalAlign=top;spacingTop=-4;fontSize=14;fontFamily=Verdana;fontColor=#E4FDE1;" parent="1" vertex="1">
          <mxGeometry x="860" y="285" width="170" height="20" as="geometry" />
        </mxCell>
        <mxCell id="677b7b8949515195-46" value="Feature 3" style="text;html=1;points=[];align=left;verticalAlign=top;spacingTop=-4;fontSize=14;fontFamily=Verdana;fontColor=#E4FDE1;" parent="1" vertex="1">
          <mxGeometry x="860" y="320" width="170" height="20" as="geometry" />
        </mxCell>
        <mxCell id="677b7b8949515195-47" value="Feature 4" style="text;html=1;points=[];align=left;verticalAlign=top;spacingTop=-4;fontSize=14;fontFamily=Verdana;fontColor=#E4FDE1;" parent="1" vertex="1">
          <mxGeometry x="860" y="355" width="170" height="20" as="geometry" />
        </mxCell>
        <mxCell id="677b7b8949515195-48" value="Feature 5" style="text;html=1;points=[];align=left;verticalAlign=top;spacingTop=-4;fontSize=14;fontFamily=Verdana;fontColor=#E4FDE1;" parent="1" vertex="1">
          <mxGeometry x="860" y="390" width="170" height="20" as="geometry" />
        </mxCell>
        <mxCell id="677b7b8949515195-49" value="Feature 6" style="text;html=1;points=[];align=left;verticalAlign=top;spacingTop=-4;fontSize=14;fontFamily=Verdana;fontColor=#E4FDE1;" parent="1" vertex="1">
          <mxGeometry x="860" y="425" width="170" height="20" as="geometry" />
        </mxCell>
      </root>
    </mxGraphModel>
  </diagram>
  <diagram id="HRC96XNu5I2nSK_5EkSZ" name="Detalle">
    <mxGraphModel dx="782" dy="441" grid="1" gridSize="10" guides="1" tooltips="1" connect="1" arrows="1" fold="1" page="1" pageScale="1" pageWidth="827" pageHeight="1169" math="0" shadow="0">
      <root>
        <mxCell id="0" />
        <mxCell id="1" parent="0" />
      </root>
    </mxGraphModel>
  </diagram>
  <diagram name="Carrito" id="rUTrEABWxWuqGOcqkm4z">
    <mxGraphModel dx="1422" dy="788" grid="1" gridSize="10" guides="1" tooltips="1" connect="1" arrows="1" fold="1" page="1" pageScale="1" pageWidth="1100" pageHeight="850" background="#182E3E" math="0" shadow="0">
      <root>
        <mxCell id="43BDQoTpli0FluHSrtYq-0" />
        <mxCell id="43BDQoTpli0FluHSrtYq-1" style="" parent="43BDQoTpli0FluHSrtYq-0" />
        <mxCell id="43BDQoTpli0FluHSrtYq-2" value="" style="strokeWidth=1;shadow=0;dashed=0;align=center;html=1;shape=mxgraph.mockup.containers.browserWindow;rSize=0;strokeColor2=#008cff;strokeColor3=#c4c4c4;mainText=,;recursiveResize=0;rounded=0;sketch=0;" vertex="1" parent="43BDQoTpli0FluHSrtYq-1">
          <mxGeometry x="15" y="20" width="1070" height="1240" as="geometry" />
        </mxCell>
        <mxCell id="43BDQoTpli0FluHSrtYq-3" value="" style="rounded=0;whiteSpace=wrap;html=1;sketch=0;strokeColor=#36393d;fillColor=#F4F4F4;" vertex="1" parent="43BDQoTpli0FluHSrtYq-2">
          <mxGeometry y="100" width="1070" height="1140" as="geometry" />
        </mxCell>
        <mxCell id="43BDQoTpli0FluHSrtYq-5" value="Page 1" style="strokeWidth=1;shadow=0;dashed=0;align=center;html=1;shape=mxgraph.mockup.containers.anchor;fontSize=17;fontColor=#1A1A1A;align=left;rounded=0;sketch=0;fillColor=#EEEEEE;strokeColor=#FFFFFF;" vertex="1" parent="43BDQoTpli0FluHSrtYq-2">
          <mxGeometry x="60" y="12" width="110" height="26" as="geometry" />
        </mxCell>
        <mxCell id="43BDQoTpli0FluHSrtYq-6" value="https://www.e-comic.co" style="strokeWidth=1;shadow=0;dashed=0;align=center;html=1;shape=mxgraph.mockup.containers.anchor;rSize=0;fontSize=17;fontColor=#1A1A1A;align=left;rounded=0;sketch=0;fillColor=#EEEEEE;strokeColor=#FFFFFF;" vertex="1" parent="43BDQoTpli0FluHSrtYq-2">
          <mxGeometry x="130" y="60" width="250" height="26" as="geometry" />
        </mxCell>
        <mxCell id="43BDQoTpli0FluHSrtYq-7" value="" style="shape=image;verticalLabelPosition=bottom;verticalAlign=top;aspect=fixed;imageAspect=0;image=https://www.pngall.com/wp-content/uploads/2/Manga-PNG-Picture.png;fillColor=#EEEEEE;strokeColor=#FFFFFF;fontColor=#1A1A1A;" vertex="1" parent="43BDQoTpli0FluHSrtYq-2">
          <mxGeometry x="27.5" y="120" width="355" height="189.09" as="geometry" />
        </mxCell>
        <mxCell id="91JSHKVOy0Di4zCMg3eI-1" value="" style="strokeWidth=1;shadow=0;dashed=0;align=center;html=1;shape=mxgraph.mockup.forms.rrect;rSize=0;strokeColor=#999999;rounded=0;sketch=0;fontColor=#FFFFFF;fillColor=#FFFFFF;gradientColor=none;" vertex="1" parent="43BDQoTpli0FluHSrtYq-2">
          <mxGeometry x="60" y="340" width="920" height="330" as="geometry" />
        </mxCell>
        <mxCell id="91JSHKVOy0Di4zCMg3eI-2" value="" style="strokeColor=inherit;fillColor=inherit;gradientColor=inherit;strokeWidth=1;shadow=0;dashed=0;align=center;html=1;shape=mxgraph.mockup.forms.rrect;rSize=0;fontSize=17;fontColor=#666666;rounded=0;sketch=0;" vertex="1" parent="91JSHKVOy0Di4zCMg3eI-1">
          <mxGeometry width="153.33333333333334" height="42.307692307692314" as="geometry" />
        </mxCell>
        <mxCell id="91JSHKVOy0Di4zCMg3eI-3" value="" style="strokeColor=inherit;fillColor=inherit;gradientColor=inherit;strokeWidth=1;shadow=0;dashed=0;align=center;html=1;shape=mxgraph.mockup.forms.rrect;rSize=0;fontSize=17;fontColor=#666666;rounded=0;sketch=0;" vertex="1" parent="91JSHKVOy0Di4zCMg3eI-1">
          <mxGeometry x="50" width="256.67" height="42.307692307692314" as="geometry" />
        </mxCell>
        <mxCell id="91JSHKVOy0Di4zCMg3eI-4" value="Producto" style="strokeColor=inherit;fillColor=inherit;gradientColor=inherit;strokeWidth=1;shadow=0;dashed=0;align=center;html=1;shape=mxgraph.mockup.forms.rrect;rSize=0;fontSize=17;fontColor=#666666;rounded=0;sketch=0;fontStyle=1" vertex="1" parent="91JSHKVOy0Di4zCMg3eI-1">
          <mxGeometry x="306.67" width="313.33" height="42.307692307692314" as="geometry" />
        </mxCell>
        <mxCell id="91JSHKVOy0Di4zCMg3eI-5" value="Precio" style="strokeColor=inherit;fillColor=inherit;gradientColor=inherit;strokeWidth=1;shadow=0;dashed=0;align=center;html=1;shape=mxgraph.mockup.forms.rrect;rSize=0;fontSize=17;fontColor=#666666;rounded=0;sketch=0;fontStyle=1" vertex="1" parent="91JSHKVOy0Di4zCMg3eI-1">
          <mxGeometry x="620" width="110" height="42.307692307692314" as="geometry" />
        </mxCell>
        <mxCell id="91JSHKVOy0Di4zCMg3eI-6" value="Cantidad" style="strokeColor=inherit;fillColor=inherit;gradientColor=inherit;strokeWidth=1;shadow=0;dashed=0;align=center;html=1;shape=mxgraph.mockup.forms.rrect;rSize=0;fontSize=17;fontColor=#666666;rounded=0;sketch=0;fontStyle=1" vertex="1" parent="91JSHKVOy0Di4zCMg3eI-1">
          <mxGeometry x="730" width="100" height="42.307692307692314" as="geometry" />
        </mxCell>
        <mxCell id="91JSHKVOy0Di4zCMg3eI-7" value="Subtotal" style="strokeColor=inherit;fillColor=inherit;gradientColor=inherit;strokeWidth=1;shadow=0;dashed=0;align=center;html=1;shape=mxgraph.mockup.forms.rrect;rSize=0;fontSize=17;fontColor=#666666;rounded=0;sketch=0;fontStyle=1" vertex="1" parent="91JSHKVOy0Di4zCMg3eI-1">
          <mxGeometry x="830" width="90" height="42.307692307692314" as="geometry" />
        </mxCell>
        <mxCell id="91JSHKVOy0Di4zCMg3eI-26" value="&lt;span style=&quot;font-size: 24px; font-style: italic; font-weight: 400;&quot;&gt;Seguir comprando&lt;/span&gt;" style="strokeWidth=1;shadow=0;dashed=0;align=center;html=1;shape=mxgraph.mockup.buttons.button;strokeColor=none;fontColor=#FFFFFF;mainText=;buttonStyle=round;fontSize=17;fontStyle=1;fillColor=#008cff;whiteSpace=wrap;rounded=0;sketch=0;" vertex="1" parent="91JSHKVOy0Di4zCMg3eI-1">
          <mxGeometry x="620" y="275" width="295" height="44" as="geometry" />
        </mxCell>
        <mxCell id="91JSHKVOy0Di4zCMg3eI-8" value="X" style="strokeWidth=1;shadow=0;dashed=0;align=center;html=1;shape=mxgraph.mockup.forms.rrect;rSize=0;strokeColor=#999999;rounded=0;sketch=0;fontColor=#FFFFFF;fillColor=#FFFFFF;gradientColor=none;" vertex="1" parent="91JSHKVOy0Di4zCMg3eI-1">
          <mxGeometry y="42.31" width="920" height="220" as="geometry" />
        </mxCell>
        <mxCell id="91JSHKVOy0Di4zCMg3eI-9" value="X" style="strokeColor=inherit;fillColor=inherit;gradientColor=inherit;strokeWidth=1;shadow=0;dashed=0;align=center;html=1;shape=mxgraph.mockup.forms.rrect;rSize=0;fontSize=17;fontColor=#666666;rounded=0;sketch=0;" vertex="1" parent="91JSHKVOy0Di4zCMg3eI-8">
          <mxGeometry width="50" height="216.8097986766155" as="geometry" />
        </mxCell>
        <mxCell id="91JSHKVOy0Di4zCMg3eI-10" value="" style="strokeColor=inherit;fillColor=inherit;gradientColor=inherit;strokeWidth=1;shadow=0;dashed=0;align=center;html=1;shape=mxgraph.mockup.forms.rrect;rSize=0;fontSize=17;fontColor=#666666;rounded=0;sketch=0;" vertex="1" parent="91JSHKVOy0Di4zCMg3eI-8">
          <mxGeometry x="50" width="256.67" height="216.8097986766155" as="geometry" />
        </mxCell>
        <mxCell id="91JSHKVOy0Di4zCMg3eI-11" value="&lt;font size=&quot;1&quot; color=&quot;#008cff&quot;&gt;&lt;b style=&quot;font-size: 20px;&quot;&gt;One punch man&lt;/b&gt;&lt;/font&gt;" style="strokeColor=inherit;fillColor=inherit;gradientColor=inherit;strokeWidth=1;shadow=0;dashed=0;align=center;html=1;shape=mxgraph.mockup.forms.rrect;rSize=0;fontSize=17;fontColor=#666666;rounded=0;sketch=0;" vertex="1" parent="91JSHKVOy0Di4zCMg3eI-8">
          <mxGeometry x="306.67" width="313.33" height="216.8097986766155" as="geometry" />
        </mxCell>
        <mxCell id="91JSHKVOy0Di4zCMg3eI-12" value="$115.000" style="strokeColor=inherit;fillColor=inherit;gradientColor=inherit;strokeWidth=1;shadow=0;dashed=0;align=center;html=1;shape=mxgraph.mockup.forms.rrect;rSize=0;fontSize=17;fontColor=#666666;rounded=0;sketch=0;" vertex="1" parent="91JSHKVOy0Di4zCMg3eI-8">
          <mxGeometry x="620" width="110" height="216.8097986766155" as="geometry" />
        </mxCell>
        <mxCell id="91JSHKVOy0Di4zCMg3eI-13" value="1" style="strokeColor=inherit;fillColor=inherit;gradientColor=inherit;strokeWidth=1;shadow=0;dashed=0;align=center;html=1;shape=mxgraph.mockup.forms.rrect;rSize=0;fontSize=17;fontColor=#666666;rounded=0;sketch=0;" vertex="1" parent="91JSHKVOy0Di4zCMg3eI-8">
          <mxGeometry x="730" width="100" height="216.8097986766155" as="geometry" />
        </mxCell>
        <mxCell id="91JSHKVOy0Di4zCMg3eI-14" value="$ 115.000" style="strokeColor=inherit;fillColor=inherit;gradientColor=inherit;strokeWidth=1;shadow=0;dashed=0;align=center;html=1;shape=mxgraph.mockup.forms.rrect;rSize=0;fontSize=17;fontColor=#666666;rounded=0;sketch=0;" vertex="1" parent="91JSHKVOy0Di4zCMg3eI-8">
          <mxGeometry x="830" width="90" height="216.8097986766155" as="geometry" />
        </mxCell>
        <mxCell id="91JSHKVOy0Di4zCMg3eI-15" value="" style="html=1;verticalLabelPosition=bottom;align=center;labelBackgroundColor=#ffffff;verticalAlign=top;strokeWidth=2;strokeColor=#0080F0;shadow=0;dashed=0;shape=mxgraph.ios7.icons.delete;rounded=0;sketch=0;fontColor=#FFFFFF;fillColor=#FFFFFF;gradientColor=none;" vertex="1" parent="91JSHKVOy0Di4zCMg3eI-8">
          <mxGeometry x="10" y="92.91848514712093" width="30" height="30.972828382373642" as="geometry" />
        </mxCell>
        <mxCell id="91JSHKVOy0Di4zCMg3eI-18" value="" style="shape=image;verticalLabelPosition=bottom;labelBackgroundColor=default;verticalAlign=top;aspect=fixed;imageAspect=0;image=https://upload.wikimedia.org/wikipedia/en/thumb/c/c3/OnePunchMan_manga_cover.png/220px-OnePunchMan_manga_cover.png;" vertex="1" parent="91JSHKVOy0Di4zCMg3eI-8">
          <mxGeometry x="105" y="3.561875263972969" width="129.88" height="203.09" as="geometry" />
        </mxCell>
        <mxCell id="91JSHKVOy0Di4zCMg3eI-35" value="&lt;span style=&quot;font-size: 24px; font-style: italic; font-weight: 400;&quot;&gt;Finalizar compra&lt;/span&gt;" style="strokeWidth=1;shadow=0;dashed=0;align=center;html=1;shape=mxgraph.mockup.buttons.button;strokeColor=none;fontColor=#FFFFFF;mainText=;buttonStyle=round;fontSize=17;fontStyle=1;fillColor=#008cff;whiteSpace=wrap;rounded=0;sketch=0;" vertex="1" parent="43BDQoTpli0FluHSrtYq-2">
          <mxGeometry x="605" y="1050" width="400" height="50" as="geometry" />
        </mxCell>
        <mxCell id="91JSHKVOy0Di4zCMg3eI-36" value="" style="strokeWidth=1;shadow=0;dashed=0;align=center;html=1;shape=mxgraph.mockup.forms.rrect;rSize=0;strokeColor=#999999;rounded=0;sketch=0;fontColor=#FFFFFF;fillColor=#FFFFFF;gradientColor=none;" vertex="1" parent="43BDQoTpli0FluHSrtYq-2">
          <mxGeometry x="680" y="690" width="300" height="330" as="geometry" />
        </mxCell>
        <mxCell id="91JSHKVOy0Di4zCMg3eI-41" value="Subtotal" style="strokeColor=inherit;fillColor=inherit;gradientColor=inherit;strokeWidth=1;shadow=0;dashed=0;align=center;html=1;shape=mxgraph.mockup.forms.rrect;rSize=0;fontSize=17;fontColor=#666666;rounded=0;sketch=0;fontStyle=1" vertex="1" parent="91JSHKVOy0Di4zCMg3eI-36">
          <mxGeometry width="110" height="42.31" as="geometry" />
        </mxCell>
        <mxCell id="91JSHKVOy0Di4zCMg3eI-42" value="$ 115.000" style="strokeColor=inherit;fillColor=inherit;gradientColor=inherit;strokeWidth=1;shadow=0;dashed=0;align=center;html=1;shape=mxgraph.mockup.forms.rrect;rSize=0;fontSize=17;fontColor=#666666;rounded=0;sketch=0;fontStyle=0" vertex="1" parent="91JSHKVOy0Di4zCMg3eI-36">
          <mxGeometry x="110" width="190" height="42.31" as="geometry" />
        </mxCell>
        <mxCell id="91JSHKVOy0Di4zCMg3eI-44" value="X" style="strokeWidth=1;shadow=0;dashed=0;align=center;html=1;shape=mxgraph.mockup.forms.rrect;rSize=0;strokeColor=#999999;rounded=0;sketch=0;fontColor=#FFFFFF;fillColor=#FFFFFF;gradientColor=none;" vertex="1" parent="91JSHKVOy0Di4zCMg3eI-36">
          <mxGeometry y="42.31" width="300" height="220" as="geometry" />
        </mxCell>
        <mxCell id="91JSHKVOy0Di4zCMg3eI-49" value="Envío" style="strokeColor=inherit;fillColor=inherit;gradientColor=inherit;strokeWidth=1;shadow=0;dashed=0;align=center;html=1;shape=mxgraph.mockup.forms.rrect;rSize=0;fontSize=17;fontColor=#666666;rounded=0;sketch=0;fontStyle=1" vertex="1" parent="91JSHKVOy0Di4zCMg3eI-44">
          <mxGeometry width="110.00000000000001" height="216.81" as="geometry" />
        </mxCell>
        <mxCell id="91JSHKVOy0Di4zCMg3eI-50" value="" style="strokeColor=inherit;fillColor=inherit;gradientColor=inherit;strokeWidth=1;shadow=0;dashed=0;align=center;html=1;shape=mxgraph.mockup.forms.rrect;rSize=0;fontSize=17;fontColor=#666666;rounded=0;sketch=0;" vertex="1" parent="91JSHKVOy0Di4zCMg3eI-44">
          <mxGeometry x="110.00000000000001" width="190.00000000000003" height="216.81" as="geometry" />
        </mxCell>
        <mxCell id="91JSHKVOy0Di4zCMg3eI-57" value="Precio fijo" style="shape=ellipse;fillColor=#eeeeee;strokeColor=#999999;gradientColor=#cccccc;html=1;align=left;spacingLeft=4;fontSize=17;fontColor=#666666;labelPosition=right;shadow=0;rounded=0;sketch=0;" vertex="1" parent="91JSHKVOy0Di4zCMg3eI-44">
          <mxGeometry x="125" y="17.690000000000055" width="15" height="15" as="geometry" />
        </mxCell>
        <mxCell id="91JSHKVOy0Di4zCMg3eI-58" value="Recogida local" style="shape=ellipse;fillColor=#eeeeee;strokeColor=#999999;gradientColor=#cccccc;html=1;align=left;spacingLeft=4;fontSize=17;fontColor=#666666;labelPosition=right;shadow=0;rounded=0;sketch=0;direction=west;" vertex="1" parent="91JSHKVOy0Di4zCMg3eI-44">
          <mxGeometry x="125" y="57.690000000000055" width="15" height="15" as="geometry" />
        </mxCell>
        <mxCell id="91JSHKVOy0Di4zCMg3eI-63" value="&lt;span style=&quot;font-size: 17px;&quot;&gt;Enviar a&amp;nbsp;&lt;/span&gt;&lt;b style=&quot;font-size: 17px;&quot;&gt;Bogota&lt;/b&gt;" style="text;html=1;strokeColor=none;fillColor=none;align=left;verticalAlign=middle;whiteSpace=wrap;rounded=0;sketch=0;fontSize=24;fontColor=#4D4D4D;" vertex="1" parent="91JSHKVOy0Di4zCMg3eI-44">
          <mxGeometry x="125" y="127.69" width="170" height="30" as="geometry" />
        </mxCell>
        <mxCell id="91JSHKVOy0Di4zCMg3eI-101" value="&lt;font color=&quot;#008cff&quot;&gt;&lt;span style=&quot;font-size: 17px;&quot;&gt;Cambiar dirección&lt;/span&gt;&lt;/font&gt;" style="text;html=1;strokeColor=none;fillColor=none;align=left;verticalAlign=middle;whiteSpace=wrap;rounded=0;sketch=0;fontSize=24;fontColor=#4D4D4D;" vertex="1" parent="91JSHKVOy0Di4zCMg3eI-44">
          <mxGeometry x="125" y="167.69000000000005" width="170" height="30" as="geometry" />
        </mxCell>
        <mxCell id="91JSHKVOy0Di4zCMg3eI-102" value="" style="shape=mxgraph.signs.transportation.helicopter;html=1;pointerEvents=1;fillColor=#4D4D4D;strokeColor=none;verticalLabelPosition=bottom;verticalAlign=top;align=center;sketch=0;rounded=0;fontSize=17;fontColor=#008CFF;" vertex="1" parent="91JSHKVOy0Di4zCMg3eI-44">
          <mxGeometry x="265" y="167.69000000000005" width="20" height="20" as="geometry" />
        </mxCell>
        <mxCell id="91JSHKVOy0Di4zCMg3eI-54" value="" style="edgeStyle=orthogonalEdgeStyle;curved=0;rounded=1;sketch=0;orthogonalLoop=1;jettySize=auto;html=1;fontSize=20;fontColor=#008CFF;strokeColor=#FFFFFF;" edge="1" parent="91JSHKVOy0Di4zCMg3eI-36" target="91JSHKVOy0Di4zCMg3eI-42">
          <mxGeometry relative="1" as="geometry">
            <mxPoint x="245.4000000000001" y="60" as="sourcePoint" />
          </mxGeometry>
        </mxCell>
        <mxCell id="91JSHKVOy0Di4zCMg3eI-55" value="" style="edgeStyle=orthogonalEdgeStyle;curved=0;rounded=1;sketch=0;orthogonalLoop=1;jettySize=auto;html=1;fontSize=20;fontColor=#008CFF;strokeColor=#FFFFFF;" edge="1" parent="91JSHKVOy0Di4zCMg3eI-36" target="91JSHKVOy0Di4zCMg3eI-42">
          <mxGeometry relative="1" as="geometry">
            <mxPoint x="245.4000000000001" y="60" as="sourcePoint" />
          </mxGeometry>
        </mxCell>
        <mxCell id="91JSHKVOy0Di4zCMg3eI-56" value="" style="edgeStyle=orthogonalEdgeStyle;curved=0;rounded=1;sketch=0;orthogonalLoop=1;jettySize=auto;html=1;fontSize=20;fontColor=#008CFF;strokeColor=#FFFFFF;" edge="1" parent="91JSHKVOy0Di4zCMg3eI-36" target="91JSHKVOy0Di4zCMg3eI-42">
          <mxGeometry relative="1" as="geometry">
            <mxPoint x="245.4000000000001" y="60" as="sourcePoint" />
          </mxGeometry>
        </mxCell>
        <mxCell id="91JSHKVOy0Di4zCMg3eI-61" value="Total" style="strokeColor=inherit;fillColor=inherit;gradientColor=inherit;strokeWidth=1;shadow=0;dashed=0;align=center;html=1;shape=mxgraph.mockup.forms.rrect;rSize=0;fontSize=17;fontColor=#666666;rounded=0;sketch=0;fontStyle=1" vertex="1" parent="91JSHKVOy0Di4zCMg3eI-36">
          <mxGeometry y="262.31" width="110" height="67.69" as="geometry" />
        </mxCell>
        <mxCell id="91JSHKVOy0Di4zCMg3eI-62" value="$ 115.000" style="strokeColor=inherit;fillColor=inherit;gradientColor=inherit;strokeWidth=1;shadow=0;dashed=0;align=center;html=1;shape=mxgraph.mockup.forms.rrect;rSize=0;fontSize=24;fontColor=#666666;rounded=0;sketch=0;fontStyle=1" vertex="1" parent="91JSHKVOy0Di4zCMg3eI-36">
          <mxGeometry x="110" y="262.31" width="190" height="67.69" as="geometry" />
        </mxCell>
        <mxCell id="91JSHKVOy0Di4zCMg3eI-110" value="" style="shape=image;html=1;verticalAlign=top;verticalLabelPosition=bottom;labelBackgroundColor=#ffffff;imageAspect=0;aspect=fixed;image=https://cdn1.iconfinder.com/data/icons/material-core/20/shopping-cart-128.png;rounded=0;sketch=0;fontSize=17;fontColor=#008CFF;strokeColor=#FFFFFF;fillColor=#4D4D4D;gradientColor=none;" vertex="1" parent="43BDQoTpli0FluHSrtYq-2">
          <mxGeometry x="890" y="219.09" width="90" height="90" as="geometry" />
        </mxCell>
        <mxCell id="pvUrNFv5SX5Tfum9SS9x-0" value="&lt;div style=&quot;&quot;&gt;&lt;span style=&quot;background-color: initial;&quot;&gt;Carrito&lt;/span&gt;&lt;/div&gt;&lt;div style=&quot;&quot;&gt;&lt;/div&gt;" style="text;html=1;points=[];align=right;verticalAlign=top;spacingTop=-4;fontSize=24;fontFamily=Verdana;fontStyle=1;fontColor=#1A1A1A;" vertex="1" parent="43BDQoTpli0FluHSrtYq-2">
          <mxGeometry x="745" y="269.09" width="145" height="40" as="geometry" />
        </mxCell>
      </root>
    </mxGraphModel>
  </diagram>
  <diagram name="Registro" id="OkS9nEMRT32isdQL7Erk">
    <mxGraphModel dx="1422" dy="788" grid="1" gridSize="10" guides="1" tooltips="1" connect="1" arrows="1" fold="1" page="1" pageScale="1" pageWidth="1100" pageHeight="850" background="#182E3E" math="0" shadow="0">
      <root>
        <mxCell id="qG0dGewGFEa3_wI4sWbM-0" />
        <mxCell id="qG0dGewGFEa3_wI4sWbM-1" style="" parent="qG0dGewGFEa3_wI4sWbM-0" />
        <mxCell id="qG0dGewGFEa3_wI4sWbM-2" value="" style="strokeWidth=1;shadow=0;dashed=0;align=center;html=1;shape=mxgraph.mockup.containers.browserWindow;rSize=0;strokeColor2=#008cff;strokeColor3=#c4c4c4;mainText=,;recursiveResize=0;rounded=0;sketch=0;" vertex="1" parent="qG0dGewGFEa3_wI4sWbM-1">
          <mxGeometry x="15" y="20" width="1070" height="800" as="geometry" />
        </mxCell>
        <mxCell id="qG0dGewGFEa3_wI4sWbM-3" value="" style="rounded=0;whiteSpace=wrap;html=1;sketch=0;strokeColor=#36393d;fillColor=#F4F4F4;" vertex="1" parent="qG0dGewGFEa3_wI4sWbM-2">
          <mxGeometry y="100" width="1070" height="700" as="geometry" />
        </mxCell>
        <mxCell id="qG0dGewGFEa3_wI4sWbM-4" value="" style="rounded=1;whiteSpace=wrap;html=1;sketch=0;fillColor=#FFFFFF;strokeColor=#FFFFFF;fontColor=#1A1A1A;" vertex="1" parent="qG0dGewGFEa3_wI4sWbM-2">
          <mxGeometry x="360" y="420" width="400" height="40" as="geometry" />
        </mxCell>
        <mxCell id="qG0dGewGFEa3_wI4sWbM-5" value="Page 1" style="strokeWidth=1;shadow=0;dashed=0;align=center;html=1;shape=mxgraph.mockup.containers.anchor;fontSize=17;fontColor=#1A1A1A;align=left;rounded=0;sketch=0;fillColor=#EEEEEE;strokeColor=#FFFFFF;" vertex="1" parent="qG0dGewGFEa3_wI4sWbM-2">
          <mxGeometry x="60" y="12" width="110" height="26" as="geometry" />
        </mxCell>
        <mxCell id="qG0dGewGFEa3_wI4sWbM-6" value="https://www.e-comic.co" style="strokeWidth=1;shadow=0;dashed=0;align=center;html=1;shape=mxgraph.mockup.containers.anchor;rSize=0;fontSize=17;fontColor=#1A1A1A;align=left;rounded=0;sketch=0;fillColor=#EEEEEE;strokeColor=#FFFFFF;" vertex="1" parent="qG0dGewGFEa3_wI4sWbM-2">
          <mxGeometry x="130" y="60" width="250" height="26" as="geometry" />
        </mxCell>
        <mxCell id="qG0dGewGFEa3_wI4sWbM-7" value="" style="shape=image;verticalLabelPosition=bottom;verticalAlign=top;aspect=fixed;imageAspect=0;image=https://www.pngall.com/wp-content/uploads/2/Manga-PNG-Picture.png;fillColor=#EEEEEE;strokeColor=#FFFFFF;fontColor=#1A1A1A;" vertex="1" parent="qG0dGewGFEa3_wI4sWbM-2">
          <mxGeometry x="382.5" y="140" width="355" height="189.09" as="geometry" />
        </mxCell>
        <mxCell id="qG0dGewGFEa3_wI4sWbM-8" value="" style="rounded=1;whiteSpace=wrap;html=1;sketch=0;fillColor=#FFFFFF;strokeColor=#FFFFFF;fontColor=#1A1A1A;" vertex="1" parent="qG0dGewGFEa3_wI4sWbM-2">
          <mxGeometry x="361" y="350" width="400" height="40" as="geometry" />
        </mxCell>
        <mxCell id="qG0dGewGFEa3_wI4sWbM-13" value="&lt;div style=&quot;&quot;&gt;&lt;span style=&quot;background-color: initial;&quot;&gt;Email&lt;/span&gt;&lt;/div&gt;&lt;div style=&quot;&quot;&gt;&lt;/div&gt;" style="text;html=1;points=[];align=right;verticalAlign=top;spacingTop=-4;fontSize=24;fontFamily=Verdana;fontStyle=1;fontColor=#1A1A1A;" vertex="1" parent="qG0dGewGFEa3_wI4sWbM-2">
          <mxGeometry x="195" y="355" width="145" height="40" as="geometry" />
        </mxCell>
        <mxCell id="hRrvTnnjRzg0IAZ5J3tC-0" value="" style="rounded=1;whiteSpace=wrap;html=1;sketch=0;fillColor=#FFFFFF;strokeColor=#FFFFFF;fontColor=#1A1A1A;" vertex="1" parent="qG0dGewGFEa3_wI4sWbM-2">
          <mxGeometry x="361" y="480" width="400" height="40" as="geometry" />
        </mxCell>
        <mxCell id="hRrvTnnjRzg0IAZ5J3tC-1" value="*********" style="text;html=1;points=[];align=left;verticalAlign=top;spacingTop=-4;fontSize=24;fontFamily=Verdana;fontStyle=1;fontColor=#4D4D4D;" vertex="1" parent="qG0dGewGFEa3_wI4sWbM-2">
          <mxGeometry x="371" y="485" width="379" height="30" as="geometry" />
        </mxCell>
        <mxCell id="hRrvTnnjRzg0IAZ5J3tC-2" value="Nombre completo&lt;br&gt;&lt;div style=&quot;&quot;&gt;&lt;/div&gt;" style="text;html=1;points=[];align=right;verticalAlign=top;spacingTop=-4;fontSize=24;fontFamily=Verdana;fontStyle=1;fontColor=#1A1A1A;" vertex="1" parent="qG0dGewGFEa3_wI4sWbM-2">
          <mxGeometry x="70" y="420" width="270" height="40" as="geometry" />
        </mxCell>
        <mxCell id="hRrvTnnjRzg0IAZ5J3tC-3" value="Contraseña&lt;br&gt;&lt;div style=&quot;&quot;&gt;&lt;/div&gt;" style="text;html=1;points=[];align=right;verticalAlign=top;spacingTop=-4;fontSize=24;fontFamily=Verdana;fontStyle=1;fontColor=#1A1A1A;" vertex="1" parent="qG0dGewGFEa3_wI4sWbM-2">
          <mxGeometry x="195" y="480" width="145" height="50" as="geometry" />
        </mxCell>
        <mxCell id="hRrvTnnjRzg0IAZ5J3tC-4" value="Saitama1@onepunch.man" style="text;html=1;points=[];align=left;verticalAlign=top;spacingTop=-4;fontSize=24;fontFamily=Verdana;fontStyle=0;fontColor=#4D4D4D;" vertex="1" parent="qG0dGewGFEa3_wI4sWbM-2">
          <mxGeometry x="371" y="355" width="379" height="30" as="geometry" />
        </mxCell>
        <mxCell id="hRrvTnnjRzg0IAZ5J3tC-5" value="Saitama San" style="text;html=1;points=[];align=left;verticalAlign=top;spacingTop=-4;fontSize=24;fontFamily=Verdana;fontStyle=0;fontColor=#4D4D4D;" vertex="1" parent="qG0dGewGFEa3_wI4sWbM-2">
          <mxGeometry x="370.5" y="425" width="379" height="30" as="geometry" />
        </mxCell>
        <mxCell id="hRrvTnnjRzg0IAZ5J3tC-6" value="" style="rounded=1;whiteSpace=wrap;html=1;sketch=0;fillColor=#FFFFFF;strokeColor=#FFFFFF;fontColor=#1A1A1A;fontStyle=1" vertex="1" parent="qG0dGewGFEa3_wI4sWbM-2">
          <mxGeometry x="360" y="540" width="400" height="40" as="geometry" />
        </mxCell>
        <mxCell id="hRrvTnnjRzg0IAZ5J3tC-7" value="24/10/2014" style="text;html=1;points=[];align=left;verticalAlign=top;spacingTop=-4;fontSize=24;fontFamily=Verdana;fontStyle=1;fontColor=#4D4D4D;" vertex="1" parent="qG0dGewGFEa3_wI4sWbM-2">
          <mxGeometry x="370" y="545" width="379" height="30" as="geometry" />
        </mxCell>
        <mxCell id="hRrvTnnjRzg0IAZ5J3tC-8" value="Fecha de nacimiento&lt;br&gt;&lt;div style=&quot;&quot;&gt;&lt;/div&gt;" style="text;html=1;points=[];align=right;verticalAlign=top;spacingTop=-4;fontSize=24;fontFamily=Verdana;fontStyle=1;fontColor=#1A1A1A;" vertex="1" parent="qG0dGewGFEa3_wI4sWbM-2">
          <mxGeometry x="194" y="540" width="145" height="50" as="geometry" />
        </mxCell>
        <mxCell id="hRrvTnnjRzg0IAZ5J3tC-9" value="" style="strokeWidth=1;shadow=0;dashed=0;align=center;html=1;shape=mxgraph.mockup.forms.rrect;rSize=5;strokeColor=none;fillColor=#ffffff;rounded=0;sketch=0;fontColor=#4D4D4D;" vertex="1" parent="qG0dGewGFEa3_wI4sWbM-2">
          <mxGeometry x="775" y="540" width="160" height="175" as="geometry" />
        </mxCell>
        <mxCell id="hRrvTnnjRzg0IAZ5J3tC-10" value="October 2014" style="strokeWidth=1;shadow=0;dashed=0;align=center;html=1;shape=mxgraph.mockup.forms.anchor;fontColor=#999999;rounded=0;sketch=0;fillColor=#F4F4F4;" vertex="1" parent="hRrvTnnjRzg0IAZ5J3tC-9">
          <mxGeometry x="30" y="8" width="100" height="20" as="geometry" />
        </mxCell>
        <mxCell id="hRrvTnnjRzg0IAZ5J3tC-11" value="&amp;lt;" style="strokeWidth=1;shadow=0;dashed=0;align=center;html=1;shape=mxgraph.mockup.forms.rrect;rSize=4;strokeColor=none;fontColor=#FFFFFF;fontSize=19;fontStyle=1;rounded=0;sketch=0;fillColor=#008CFF;" vertex="1" parent="hRrvTnnjRzg0IAZ5J3tC-9">
          <mxGeometry x="8" y="8" width="25" height="20" as="geometry" />
        </mxCell>
        <mxCell id="hRrvTnnjRzg0IAZ5J3tC-12" value="&amp;gt;" style="strokeWidth=1;shadow=0;dashed=0;align=center;html=1;shape=mxgraph.mockup.forms.rrect;rSize=4;strokeColor=none;fontColor=#FFFFFF;fontSize=19;fontStyle=1;rounded=0;sketch=0;fillColor=#008CFF;" vertex="1" parent="hRrvTnnjRzg0IAZ5J3tC-9">
          <mxGeometry x="127" y="8" width="25" height="20" as="geometry" />
        </mxCell>
        <mxCell id="hRrvTnnjRzg0IAZ5J3tC-13" value="Mo" style="strokeWidth=1;shadow=0;dashed=0;align=center;html=1;shape=mxgraph.mockup.forms.anchor;fontColor=#999999;rounded=0;sketch=0;fillColor=#F4F4F4;" vertex="1" parent="hRrvTnnjRzg0IAZ5J3tC-9">
          <mxGeometry x="10" y="28" width="20" height="20" as="geometry" />
        </mxCell>
        <mxCell id="hRrvTnnjRzg0IAZ5J3tC-14" value="Tu" style="strokeWidth=1;shadow=0;dashed=0;align=center;html=1;shape=mxgraph.mockup.forms.anchor;fontColor=#999999;rounded=0;sketch=0;fillColor=#F4F4F4;" vertex="1" parent="hRrvTnnjRzg0IAZ5J3tC-9">
          <mxGeometry x="30" y="28" width="20" height="20" as="geometry" />
        </mxCell>
        <mxCell id="hRrvTnnjRzg0IAZ5J3tC-15" value="We" style="strokeWidth=1;shadow=0;dashed=0;align=center;html=1;shape=mxgraph.mockup.forms.anchor;fontColor=#999999;rounded=0;sketch=0;fillColor=#F4F4F4;" vertex="1" parent="hRrvTnnjRzg0IAZ5J3tC-9">
          <mxGeometry x="50" y="28" width="20" height="20" as="geometry" />
        </mxCell>
        <mxCell id="hRrvTnnjRzg0IAZ5J3tC-16" value="Th" style="strokeWidth=1;shadow=0;dashed=0;align=center;html=1;shape=mxgraph.mockup.forms.anchor;fontColor=#999999;rounded=0;sketch=0;fillColor=#F4F4F4;" vertex="1" parent="hRrvTnnjRzg0IAZ5J3tC-9">
          <mxGeometry x="70" y="28" width="20" height="20" as="geometry" />
        </mxCell>
        <mxCell id="hRrvTnnjRzg0IAZ5J3tC-17" value="Fr" style="strokeWidth=1;shadow=0;dashed=0;align=center;html=1;shape=mxgraph.mockup.forms.anchor;fontColor=#999999;rounded=0;sketch=0;fillColor=#F4F4F4;" vertex="1" parent="hRrvTnnjRzg0IAZ5J3tC-9">
          <mxGeometry x="90" y="28" width="20" height="20" as="geometry" />
        </mxCell>
        <mxCell id="hRrvTnnjRzg0IAZ5J3tC-18" value="Sa" style="strokeWidth=1;shadow=0;dashed=0;align=center;html=1;shape=mxgraph.mockup.forms.anchor;fontColor=#999999;rounded=0;sketch=0;fillColor=#F4F4F4;" vertex="1" parent="hRrvTnnjRzg0IAZ5J3tC-9">
          <mxGeometry x="110" y="28" width="20" height="20" as="geometry" />
        </mxCell>
        <mxCell id="hRrvTnnjRzg0IAZ5J3tC-19" value="Su" style="strokeWidth=1;shadow=0;dashed=0;align=center;html=1;shape=mxgraph.mockup.forms.anchor;fontColor=#999999;rounded=0;sketch=0;fillColor=#F4F4F4;" vertex="1" parent="hRrvTnnjRzg0IAZ5J3tC-9">
          <mxGeometry x="130" y="28" width="20" height="20" as="geometry" />
        </mxCell>
        <mxCell id="hRrvTnnjRzg0IAZ5J3tC-20" value="1" style="strokeWidth=1;shadow=0;dashed=0;align=center;html=1;shape=mxgraph.mockup.forms.rrect;rSize=0;strokeColor=#999999;fontColor=#999999;rounded=0;sketch=0;fillColor=#F4F4F4;" vertex="1" parent="hRrvTnnjRzg0IAZ5J3tC-9">
          <mxGeometry x="10" y="48" width="20" height="20" as="geometry" />
        </mxCell>
        <mxCell id="hRrvTnnjRzg0IAZ5J3tC-21" value="2" style="strokeWidth=1;shadow=0;dashed=0;align=center;html=1;shape=mxgraph.mockup.forms.rrect;rSize=0;strokeColor=#999999;fontColor=#999999;rounded=0;sketch=0;fillColor=#F4F4F4;" vertex="1" parent="hRrvTnnjRzg0IAZ5J3tC-9">
          <mxGeometry x="30" y="48" width="20" height="20" as="geometry" />
        </mxCell>
        <mxCell id="hRrvTnnjRzg0IAZ5J3tC-22" value="3" style="strokeWidth=1;shadow=0;dashed=0;align=center;html=1;shape=mxgraph.mockup.forms.rrect;rSize=0;strokeColor=#999999;fontColor=#999999;rounded=0;sketch=0;fillColor=#F4F4F4;" vertex="1" parent="hRrvTnnjRzg0IAZ5J3tC-9">
          <mxGeometry x="50" y="48" width="20" height="20" as="geometry" />
        </mxCell>
        <mxCell id="hRrvTnnjRzg0IAZ5J3tC-23" value="4" style="strokeWidth=1;shadow=0;dashed=0;align=center;html=1;shape=mxgraph.mockup.forms.rrect;rSize=0;strokeColor=#999999;fontColor=#999999;rounded=0;sketch=0;fillColor=#F4F4F4;" vertex="1" parent="hRrvTnnjRzg0IAZ5J3tC-9">
          <mxGeometry x="70" y="48" width="20" height="20" as="geometry" />
        </mxCell>
        <mxCell id="hRrvTnnjRzg0IAZ5J3tC-24" value="5" style="strokeWidth=1;shadow=0;dashed=0;align=center;html=1;shape=mxgraph.mockup.forms.rrect;rSize=0;strokeColor=#999999;fontColor=#999999;rounded=0;sketch=0;fillColor=#F4F4F4;" vertex="1" parent="hRrvTnnjRzg0IAZ5J3tC-9">
          <mxGeometry x="90" y="48" width="20" height="20" as="geometry" />
        </mxCell>
        <mxCell id="hRrvTnnjRzg0IAZ5J3tC-25" value="6" style="strokeWidth=1;shadow=0;dashed=0;align=center;html=1;shape=mxgraph.mockup.forms.rrect;rSize=0;strokeColor=#999999;fontColor=#999999;rounded=0;sketch=0;fillColor=#F4F4F4;" vertex="1" parent="hRrvTnnjRzg0IAZ5J3tC-9">
          <mxGeometry x="110" y="48" width="20" height="20" as="geometry" />
        </mxCell>
        <mxCell id="hRrvTnnjRzg0IAZ5J3tC-26" value="7" style="strokeWidth=1;shadow=0;dashed=0;align=center;html=1;shape=mxgraph.mockup.forms.rrect;rSize=0;strokeColor=#999999;fontColor=#999999;rounded=0;sketch=0;fillColor=#F4F4F4;" vertex="1" parent="hRrvTnnjRzg0IAZ5J3tC-9">
          <mxGeometry x="130" y="48" width="20" height="20" as="geometry" />
        </mxCell>
        <mxCell id="hRrvTnnjRzg0IAZ5J3tC-27" value="8" style="strokeWidth=1;shadow=0;dashed=0;align=center;html=1;shape=mxgraph.mockup.forms.rrect;rSize=0;strokeColor=#999999;fontColor=#999999;rounded=0;sketch=0;fillColor=#F4F4F4;" vertex="1" parent="hRrvTnnjRzg0IAZ5J3tC-9">
          <mxGeometry x="10" y="68" width="20" height="20" as="geometry" />
        </mxCell>
        <mxCell id="hRrvTnnjRzg0IAZ5J3tC-28" value="9" style="strokeWidth=1;shadow=0;dashed=0;align=center;html=1;shape=mxgraph.mockup.forms.rrect;rSize=0;strokeColor=#999999;fontColor=#999999;rounded=0;sketch=0;fillColor=#F4F4F4;" vertex="1" parent="hRrvTnnjRzg0IAZ5J3tC-9">
          <mxGeometry x="30" y="68" width="20" height="20" as="geometry" />
        </mxCell>
        <mxCell id="hRrvTnnjRzg0IAZ5J3tC-29" value="10" style="strokeWidth=1;shadow=0;dashed=0;align=center;html=1;shape=mxgraph.mockup.forms.rrect;rSize=0;strokeColor=#999999;fontColor=#999999;rounded=0;sketch=0;fillColor=#F4F4F4;" vertex="1" parent="hRrvTnnjRzg0IAZ5J3tC-9">
          <mxGeometry x="50" y="68" width="20" height="20" as="geometry" />
        </mxCell>
        <mxCell id="hRrvTnnjRzg0IAZ5J3tC-30" value="11" style="strokeWidth=1;shadow=0;dashed=0;align=center;html=1;shape=mxgraph.mockup.forms.rrect;rSize=0;strokeColor=#999999;fontColor=#999999;rounded=0;sketch=0;fillColor=#F4F4F4;" vertex="1" parent="hRrvTnnjRzg0IAZ5J3tC-9">
          <mxGeometry x="70" y="68" width="20" height="20" as="geometry" />
        </mxCell>
        <mxCell id="hRrvTnnjRzg0IAZ5J3tC-31" value="12" style="strokeWidth=1;shadow=0;dashed=0;align=center;html=1;shape=mxgraph.mockup.forms.rrect;rSize=0;strokeColor=#999999;fontColor=#999999;rounded=0;sketch=0;fillColor=#F4F4F4;" vertex="1" parent="hRrvTnnjRzg0IAZ5J3tC-9">
          <mxGeometry x="90" y="68" width="20" height="20" as="geometry" />
        </mxCell>
        <mxCell id="hRrvTnnjRzg0IAZ5J3tC-32" value="13" style="strokeWidth=1;shadow=0;dashed=0;align=center;html=1;shape=mxgraph.mockup.forms.rrect;rSize=0;strokeColor=#999999;fontColor=#999999;rounded=0;sketch=0;fillColor=#F4F4F4;" vertex="1" parent="hRrvTnnjRzg0IAZ5J3tC-9">
          <mxGeometry x="110" y="68" width="20" height="20" as="geometry" />
        </mxCell>
        <mxCell id="hRrvTnnjRzg0IAZ5J3tC-33" value="14" style="strokeWidth=1;shadow=0;dashed=0;align=center;html=1;shape=mxgraph.mockup.forms.rrect;rSize=0;strokeColor=#999999;fontColor=#999999;rounded=0;sketch=0;fillColor=#F4F4F4;" vertex="1" parent="hRrvTnnjRzg0IAZ5J3tC-9">
          <mxGeometry x="130" y="68" width="20" height="20" as="geometry" />
        </mxCell>
        <mxCell id="hRrvTnnjRzg0IAZ5J3tC-34" value="15" style="strokeWidth=1;shadow=0;dashed=0;align=center;html=1;shape=mxgraph.mockup.forms.rrect;rSize=0;strokeColor=#999999;fontColor=#999999;rounded=0;sketch=0;fillColor=#F4F4F4;" vertex="1" parent="hRrvTnnjRzg0IAZ5J3tC-9">
          <mxGeometry x="10" y="88" width="20" height="20" as="geometry" />
        </mxCell>
        <mxCell id="hRrvTnnjRzg0IAZ5J3tC-35" value="16" style="strokeWidth=1;shadow=0;dashed=0;align=center;html=1;shape=mxgraph.mockup.forms.rrect;rSize=0;strokeColor=#999999;fontColor=#999999;rounded=0;sketch=0;fillColor=#F4F4F4;" vertex="1" parent="hRrvTnnjRzg0IAZ5J3tC-9">
          <mxGeometry x="30" y="88" width="20" height="20" as="geometry" />
        </mxCell>
        <mxCell id="hRrvTnnjRzg0IAZ5J3tC-36" value="17" style="strokeWidth=1;shadow=0;dashed=0;align=center;html=1;shape=mxgraph.mockup.forms.rrect;rSize=0;strokeColor=#999999;fontColor=#999999;rounded=0;sketch=0;fillColor=#F4F4F4;" vertex="1" parent="hRrvTnnjRzg0IAZ5J3tC-9">
          <mxGeometry x="50" y="88" width="20" height="20" as="geometry" />
        </mxCell>
        <mxCell id="hRrvTnnjRzg0IAZ5J3tC-37" value="18" style="strokeWidth=1;shadow=0;dashed=0;align=center;html=1;shape=mxgraph.mockup.forms.rrect;rSize=0;strokeColor=#999999;fontColor=#999999;rounded=0;sketch=0;fillColor=#F4F4F4;" vertex="1" parent="hRrvTnnjRzg0IAZ5J3tC-9">
          <mxGeometry x="70" y="88" width="20" height="20" as="geometry" />
        </mxCell>
        <mxCell id="hRrvTnnjRzg0IAZ5J3tC-38" value="19" style="strokeWidth=1;shadow=0;dashed=0;align=center;html=1;shape=mxgraph.mockup.forms.rrect;rSize=0;strokeColor=#999999;fontColor=#999999;rounded=0;sketch=0;fillColor=#F4F4F4;" vertex="1" parent="hRrvTnnjRzg0IAZ5J3tC-9">
          <mxGeometry x="90" y="88" width="20" height="20" as="geometry" />
        </mxCell>
        <mxCell id="hRrvTnnjRzg0IAZ5J3tC-39" value="20" style="strokeWidth=1;shadow=0;dashed=0;align=center;html=1;shape=mxgraph.mockup.forms.rrect;rSize=0;strokeColor=#999999;fontColor=#999999;rounded=0;sketch=0;fillColor=#F4F4F4;" vertex="1" parent="hRrvTnnjRzg0IAZ5J3tC-9">
          <mxGeometry x="110" y="88" width="20" height="20" as="geometry" />
        </mxCell>
        <mxCell id="hRrvTnnjRzg0IAZ5J3tC-40" value="21" style="strokeWidth=1;shadow=0;dashed=0;align=center;html=1;shape=mxgraph.mockup.forms.rrect;rSize=0;strokeColor=#999999;fontColor=#999999;rounded=0;sketch=0;fillColor=#F4F4F4;" vertex="1" parent="hRrvTnnjRzg0IAZ5J3tC-9">
          <mxGeometry x="130" y="88" width="20" height="20" as="geometry" />
        </mxCell>
        <mxCell id="hRrvTnnjRzg0IAZ5J3tC-41" value="22" style="strokeWidth=1;shadow=0;dashed=0;align=center;html=1;shape=mxgraph.mockup.forms.rrect;rSize=0;strokeColor=#999999;fontColor=#999999;rounded=0;sketch=0;fillColor=#F4F4F4;" vertex="1" parent="hRrvTnnjRzg0IAZ5J3tC-9">
          <mxGeometry x="10" y="108" width="20" height="20" as="geometry" />
        </mxCell>
        <mxCell id="hRrvTnnjRzg0IAZ5J3tC-42" value="23" style="strokeWidth=1;shadow=0;dashed=0;align=center;html=1;shape=mxgraph.mockup.forms.rrect;rSize=0;strokeColor=#999999;fontColor=#999999;rounded=0;sketch=0;fillColor=#F4F4F4;" vertex="1" parent="hRrvTnnjRzg0IAZ5J3tC-9">
          <mxGeometry x="30" y="108" width="20" height="20" as="geometry" />
        </mxCell>
        <mxCell id="hRrvTnnjRzg0IAZ5J3tC-43" value="25" style="strokeWidth=1;shadow=0;dashed=0;align=center;html=1;shape=mxgraph.mockup.forms.rrect;rSize=0;strokeColor=#999999;fontColor=#999999;rounded=0;sketch=0;fillColor=#F4F4F4;" vertex="1" parent="hRrvTnnjRzg0IAZ5J3tC-9">
          <mxGeometry x="70" y="108" width="20" height="20" as="geometry" />
        </mxCell>
        <mxCell id="hRrvTnnjRzg0IAZ5J3tC-44" value="26" style="strokeWidth=1;shadow=0;dashed=0;align=center;html=1;shape=mxgraph.mockup.forms.rrect;rSize=0;strokeColor=#999999;fontColor=#999999;rounded=0;sketch=0;fillColor=#F4F4F4;" vertex="1" parent="hRrvTnnjRzg0IAZ5J3tC-9">
          <mxGeometry x="90" y="108" width="20" height="20" as="geometry" />
        </mxCell>
        <mxCell id="hRrvTnnjRzg0IAZ5J3tC-45" value="27" style="strokeWidth=1;shadow=0;dashed=0;align=center;html=1;shape=mxgraph.mockup.forms.rrect;rSize=0;strokeColor=#999999;fontColor=#999999;rounded=0;sketch=0;fillColor=#F4F4F4;" vertex="1" parent="hRrvTnnjRzg0IAZ5J3tC-9">
          <mxGeometry x="110" y="108" width="20" height="20" as="geometry" />
        </mxCell>
        <mxCell id="hRrvTnnjRzg0IAZ5J3tC-46" value="28" style="strokeWidth=1;shadow=0;dashed=0;align=center;html=1;shape=mxgraph.mockup.forms.rrect;rSize=0;strokeColor=#999999;fontColor=#999999;rounded=0;sketch=0;fillColor=#F4F4F4;" vertex="1" parent="hRrvTnnjRzg0IAZ5J3tC-9">
          <mxGeometry x="130" y="108" width="20" height="20" as="geometry" />
        </mxCell>
        <mxCell id="hRrvTnnjRzg0IAZ5J3tC-47" value="29" style="strokeWidth=1;shadow=0;dashed=0;align=center;html=1;shape=mxgraph.mockup.forms.rrect;rSize=0;strokeColor=#999999;fontColor=#999999;rounded=0;sketch=0;fillColor=#F4F4F4;" vertex="1" parent="hRrvTnnjRzg0IAZ5J3tC-9">
          <mxGeometry x="10" y="128" width="20" height="20" as="geometry" />
        </mxCell>
        <mxCell id="hRrvTnnjRzg0IAZ5J3tC-48" value="30" style="strokeWidth=1;shadow=0;dashed=0;align=center;html=1;shape=mxgraph.mockup.forms.rrect;rSize=0;strokeColor=#999999;fontColor=#999999;rounded=0;sketch=0;fillColor=#F4F4F4;" vertex="1" parent="hRrvTnnjRzg0IAZ5J3tC-9">
          <mxGeometry x="30" y="128" width="20" height="20" as="geometry" />
        </mxCell>
        <mxCell id="hRrvTnnjRzg0IAZ5J3tC-49" value="31" style="strokeWidth=1;shadow=0;dashed=0;align=center;html=1;shape=mxgraph.mockup.forms.rrect;rSize=0;strokeColor=#999999;fontColor=#999999;rounded=0;sketch=0;fillColor=#F4F4F4;" vertex="1" parent="hRrvTnnjRzg0IAZ5J3tC-9">
          <mxGeometry x="50" y="128" width="20" height="20" as="geometry" />
        </mxCell>
        <mxCell id="hRrvTnnjRzg0IAZ5J3tC-50" value="1" style="strokeWidth=1;shadow=0;dashed=0;align=center;html=1;shape=mxgraph.mockup.forms.rrect;rSize=0;strokeColor=#999999;fontColor=#999999;fillColor=#ddeeff;rounded=0;sketch=0;" vertex="1" parent="hRrvTnnjRzg0IAZ5J3tC-9">
          <mxGeometry x="70" y="128" width="20" height="20" as="geometry" />
        </mxCell>
        <mxCell id="hRrvTnnjRzg0IAZ5J3tC-51" value="2" style="strokeWidth=1;shadow=0;dashed=0;align=center;html=1;shape=mxgraph.mockup.forms.rrect;rSize=0;strokeColor=#999999;fontColor=#999999;fillColor=#ddeeff;rounded=0;sketch=0;" vertex="1" parent="hRrvTnnjRzg0IAZ5J3tC-9">
          <mxGeometry x="90" y="128" width="20" height="20" as="geometry" />
        </mxCell>
        <mxCell id="hRrvTnnjRzg0IAZ5J3tC-52" value="3" style="strokeWidth=1;shadow=0;dashed=0;align=center;html=1;shape=mxgraph.mockup.forms.rrect;rSize=0;strokeColor=#999999;fontColor=#999999;fillColor=#ddeeff;rounded=0;sketch=0;" vertex="1" parent="hRrvTnnjRzg0IAZ5J3tC-9">
          <mxGeometry x="110" y="128" width="20" height="20" as="geometry" />
        </mxCell>
        <mxCell id="hRrvTnnjRzg0IAZ5J3tC-53" value="4" style="strokeWidth=1;shadow=0;dashed=0;align=center;html=1;shape=mxgraph.mockup.forms.rrect;rSize=0;strokeColor=#999999;fontColor=#999999;fillColor=#ddeeff;rounded=0;sketch=0;" vertex="1" parent="hRrvTnnjRzg0IAZ5J3tC-9">
          <mxGeometry x="130" y="128" width="20" height="20" as="geometry" />
        </mxCell>
        <mxCell id="hRrvTnnjRzg0IAZ5J3tC-54" value="5" style="strokeWidth=1;shadow=0;dashed=0;align=center;html=1;shape=mxgraph.mockup.forms.rrect;rSize=0;strokeColor=#999999;fontColor=#999999;fillColor=#ddeeff;rounded=0;sketch=0;" vertex="1" parent="hRrvTnnjRzg0IAZ5J3tC-9">
          <mxGeometry x="10" y="148" width="20" height="20" as="geometry" />
        </mxCell>
        <mxCell id="hRrvTnnjRzg0IAZ5J3tC-55" value="6" style="strokeWidth=1;shadow=0;dashed=0;align=center;html=1;shape=mxgraph.mockup.forms.rrect;rSize=0;strokeColor=#999999;fontColor=#999999;fillColor=#ddeeff;rounded=0;sketch=0;" vertex="1" parent="hRrvTnnjRzg0IAZ5J3tC-9">
          <mxGeometry x="30" y="148" width="20" height="20" as="geometry" />
        </mxCell>
        <mxCell id="hRrvTnnjRzg0IAZ5J3tC-56" value="7" style="strokeWidth=1;shadow=0;dashed=0;align=center;html=1;shape=mxgraph.mockup.forms.rrect;rSize=0;strokeColor=#999999;fontColor=#999999;fillColor=#ddeeff;rounded=0;sketch=0;" vertex="1" parent="hRrvTnnjRzg0IAZ5J3tC-9">
          <mxGeometry x="50" y="148" width="20" height="20" as="geometry" />
        </mxCell>
        <mxCell id="hRrvTnnjRzg0IAZ5J3tC-57" value="8" style="strokeWidth=1;shadow=0;dashed=0;align=center;html=1;shape=mxgraph.mockup.forms.rrect;rSize=0;strokeColor=#999999;fontColor=#999999;fillColor=#ddeeff;rounded=0;sketch=0;" vertex="1" parent="hRrvTnnjRzg0IAZ5J3tC-9">
          <mxGeometry x="70" y="148" width="20" height="20" as="geometry" />
        </mxCell>
        <mxCell id="hRrvTnnjRzg0IAZ5J3tC-58" value="9" style="strokeWidth=1;shadow=0;dashed=0;align=center;html=1;shape=mxgraph.mockup.forms.rrect;rSize=0;strokeColor=#999999;fontColor=#999999;fillColor=#ddeeff;rounded=0;sketch=0;" vertex="1" parent="hRrvTnnjRzg0IAZ5J3tC-9">
          <mxGeometry x="90" y="148" width="20" height="20" as="geometry" />
        </mxCell>
        <mxCell id="hRrvTnnjRzg0IAZ5J3tC-59" value="10" style="strokeWidth=1;shadow=0;dashed=0;align=center;html=1;shape=mxgraph.mockup.forms.rrect;rSize=0;strokeColor=#999999;fontColor=#999999;fillColor=#ddeeff;rounded=0;sketch=0;" vertex="1" parent="hRrvTnnjRzg0IAZ5J3tC-9">
          <mxGeometry x="110" y="148" width="20" height="20" as="geometry" />
        </mxCell>
        <mxCell id="hRrvTnnjRzg0IAZ5J3tC-60" value="11" style="strokeWidth=1;shadow=0;dashed=0;align=center;html=1;shape=mxgraph.mockup.forms.rrect;rSize=0;strokeColor=#999999;fontColor=#999999;fillColor=#ddeeff;rounded=0;sketch=0;" vertex="1" parent="hRrvTnnjRzg0IAZ5J3tC-9">
          <mxGeometry x="130" y="148" width="20" height="20" as="geometry" />
        </mxCell>
        <mxCell id="hRrvTnnjRzg0IAZ5J3tC-61" value="24" style="strokeWidth=1;shadow=0;dashed=0;align=center;html=1;shape=mxgraph.mockup.forms.rrect;rSize=0;strokeColor=#ff0000;fontColor=#ffffff;strokeWidth=2;fillColor=#008cff;rounded=0;sketch=0;" vertex="1" parent="hRrvTnnjRzg0IAZ5J3tC-9">
          <mxGeometry x="50" y="108" width="20" height="20" as="geometry" />
        </mxCell>
        <mxCell id="hRrvTnnjRzg0IAZ5J3tC-63" value="&lt;span style=&quot;font-size: 24px; font-style: italic; font-weight: 400;&quot;&gt;Registrarse&lt;/span&gt;" style="strokeWidth=1;shadow=0;dashed=0;align=center;html=1;shape=mxgraph.mockup.buttons.button;strokeColor=none;fontColor=#FFFFFF;mainText=;buttonStyle=round;fontSize=17;fontStyle=1;fillColor=#008cff;whiteSpace=wrap;rounded=0;sketch=0;" vertex="1" parent="qG0dGewGFEa3_wI4sWbM-2">
          <mxGeometry x="361" y="620" width="400" height="50" as="geometry" />
        </mxCell>
      </root>
    </mxGraphModel>
  </diagram>
  <diagram id="d3poy4bSwG68aCRCrQNi" name="Login">
    <mxGraphModel dx="1422" dy="788" grid="1" gridSize="10" guides="1" tooltips="1" connect="1" arrows="1" fold="1" page="1" pageScale="1" pageWidth="1100" pageHeight="850" background="#182E3E" math="0" shadow="0">
      <root>
        <mxCell id="0" />
        <mxCell id="1" parent="0" />
        <mxCell id="z_FX7dZf0UlovALK96Ym-11" value="" style="strokeWidth=1;shadow=0;dashed=0;align=center;html=1;shape=mxgraph.mockup.containers.browserWindow;rSize=0;strokeColor2=#008cff;strokeColor3=#c4c4c4;mainText=,;recursiveResize=0;rounded=0;sketch=0;" vertex="1" parent="1">
          <mxGeometry x="15" y="10" width="1070" height="810" as="geometry" />
        </mxCell>
        <mxCell id="z_FX7dZf0UlovALK96Ym-14" value="" style="rounded=0;whiteSpace=wrap;html=1;sketch=0;strokeColor=#36393d;fillColor=#F4F4F4;" vertex="1" parent="z_FX7dZf0UlovALK96Ym-11">
          <mxGeometry y="110" width="1070" height="700" as="geometry" />
        </mxCell>
        <mxCell id="LaXET2GmIMIcf4E5DBt6-5" value="" style="rounded=1;whiteSpace=wrap;html=1;sketch=0;fillColor=#FFFFFF;strokeColor=#FFFFFF;fontColor=#1A1A1A;" vertex="1" parent="z_FX7dZf0UlovALK96Ym-11">
          <mxGeometry x="360" y="420" width="400" height="40" as="geometry" />
        </mxCell>
        <mxCell id="z_FX7dZf0UlovALK96Ym-12" value="Page 1" style="strokeWidth=1;shadow=0;dashed=0;align=center;html=1;shape=mxgraph.mockup.containers.anchor;fontSize=17;fontColor=#1A1A1A;align=left;rounded=0;sketch=0;fillColor=#EEEEEE;strokeColor=#FFFFFF;" vertex="1" parent="z_FX7dZf0UlovALK96Ym-11">
          <mxGeometry x="60" y="12" width="110" height="26" as="geometry" />
        </mxCell>
        <mxCell id="z_FX7dZf0UlovALK96Ym-13" value="https://www.e-comic.co" style="strokeWidth=1;shadow=0;dashed=0;align=center;html=1;shape=mxgraph.mockup.containers.anchor;rSize=0;fontSize=17;fontColor=#1A1A1A;align=left;rounded=0;sketch=0;fillColor=#EEEEEE;strokeColor=#FFFFFF;" vertex="1" parent="z_FX7dZf0UlovALK96Ym-11">
          <mxGeometry x="130" y="60" width="250" height="26" as="geometry" />
        </mxCell>
        <mxCell id="z_FX7dZf0UlovALK96Ym-6" value="" style="shape=image;verticalLabelPosition=bottom;verticalAlign=top;aspect=fixed;imageAspect=0;image=https://www.pngall.com/wp-content/uploads/2/Manga-PNG-Picture.png;fillColor=#EEEEEE;strokeColor=#FFFFFF;fontColor=#1A1A1A;" vertex="1" parent="z_FX7dZf0UlovALK96Ym-11">
          <mxGeometry x="382.5" y="140" width="355" height="189.09" as="geometry" />
        </mxCell>
        <mxCell id="LaXET2GmIMIcf4E5DBt6-1" value="" style="rounded=1;whiteSpace=wrap;html=1;sketch=0;fillColor=#FFFFFF;strokeColor=#FFFFFF;fontColor=#1A1A1A;" vertex="1" parent="z_FX7dZf0UlovALK96Ym-11">
          <mxGeometry x="361" y="350" width="400" height="40" as="geometry" />
        </mxCell>
        <mxCell id="LaXET2GmIMIcf4E5DBt6-6" value="*********" style="text;html=1;points=[];align=left;verticalAlign=top;spacingTop=-4;fontSize=24;fontFamily=Verdana;fontStyle=1;fontColor=#1A1A1A;" vertex="1" parent="z_FX7dZf0UlovALK96Ym-11">
          <mxGeometry x="370" y="425" width="140" height="30" as="geometry" />
        </mxCell>
        <mxCell id="z_FX7dZf0UlovALK96Ym-2" value="&lt;span style=&quot;&quot;&gt;&lt;font style=&quot;font-size: 21px;&quot;&gt;¿Olvidaste tu contraseña?&lt;/font&gt;&lt;/span&gt;" style="text;html=1;points=[];align=center;verticalAlign=top;spacingTop=-4;fontSize=24;fontFamily=Verdana;fontStyle=2;fontColor=#1A1A1A;" vertex="1" parent="z_FX7dZf0UlovALK96Ym-11">
          <mxGeometry x="500" y="480" width="250" height="30" as="geometry" />
        </mxCell>
        <mxCell id="z_FX7dZf0UlovALK96Ym-4" value="&lt;span style=&quot;font-size: 21px;&quot;&gt;¿No eres un miembro?&lt;/span&gt;" style="text;html=1;points=[];align=center;verticalAlign=top;spacingTop=-4;fontSize=24;fontFamily=Verdana;fontStyle=2;fontColor=#1A1A1A;" vertex="1" parent="z_FX7dZf0UlovALK96Ym-11">
          <mxGeometry x="360" y="640" width="250" height="30" as="geometry" />
        </mxCell>
        <UserObject label="&lt;span style=&quot;font-size: 24px;&quot;&gt;Registrarse!&lt;/span&gt;" link="data:page/id,_QPbdQeMFeqDpD3c4VJc" id="z_FX7dZf0UlovALK96Ym-3">
          <mxCell style="text;html=1;points=[];align=center;verticalAlign=top;spacingTop=-4;fontSize=25;fontFamily=Verdana;fontStyle=2;fontColor=#1A1A1A;" vertex="1" parent="z_FX7dZf0UlovALK96Ym-11">
            <mxGeometry x="561" y="639" width="250" height="30" as="geometry" />
          </mxCell>
        </UserObject>
        <mxCell id="LaXET2GmIMIcf4E5DBt6-2" value="Usuario" style="text;html=1;points=[];align=left;verticalAlign=top;spacingTop=-4;fontSize=24;fontFamily=Verdana;fontStyle=1;fontColor=#1A1A1A;" vertex="1" parent="z_FX7dZf0UlovALK96Ym-11">
          <mxGeometry x="370" y="355" width="90" height="30" as="geometry" />
        </mxCell>
        <mxCell id="z_FX7dZf0UlovALK96Ym-16" value="&lt;span style=&quot;font-size: 24px; font-style: italic; font-weight: 400;&quot;&gt;Iniciar sesión&lt;/span&gt;" style="strokeWidth=1;shadow=0;dashed=0;align=center;html=1;shape=mxgraph.mockup.buttons.button;strokeColor=none;fontColor=#FFFFFF;mainText=;buttonStyle=round;fontSize=17;fontStyle=1;fillColor=#008cff;whiteSpace=wrap;rounded=0;sketch=0;" vertex="1" parent="z_FX7dZf0UlovALK96Ym-11">
          <mxGeometry x="360" y="550" width="400" height="50" as="geometry" />
        </mxCell>
      </root>
    </mxGraphModel>
  </diagram>
</mxfile>
